# xmcd
#
# Track frame offsets:
#	150
#	17546
#	34731
#	56773
#	70403
#	85696
#	107132
#	123263
#	134232
#	147214
#	168943
#	181971
#
# Disc length: 2630 seconds
#
# Revision: 0
# Processed by: cddbd v1.5.2PL0 Copyright (c) Steve Scherf et al.
# Submitted via: EasyCDDAExtractor 16.0.6.1
#
DISCID=a60a440c
DTITLE=Gleny Rae Virus and her Playboys - Whojigadandy
DYEAR=2013
DGENRE=Country
TTITLE0=My Folks
TTITLE1=When The Cows Come Home
TTITLE2=The Ballad of Diamond Jack
TTITLE3=Honey Rock
TTITLE4=It's Voodoo
TTITLE5=Mahna De Carnival
TTITLE6=Pirates
TTITLE7=Back To The Barn
TTITLE8=Night Train to Memphis
TTITLE9=Spinning Wheel
TTITLE10=Fences
TTITLE11=Miss You When You're Near
EXTD=
EXTT0=
EXTT1=
EXTT2=
EXTT3=
EXTT4=
EXTT5=
EXTT6=
EXTT7=
EXTT8=
EXTT9=
EXTT10=
EXTT11=
PLAYORDER=
